<svg width="9" height="9" viewBox="0 0 9 9" fill="none" xmlns="http://www.w3.org/2000/svg">
<path fill-rule="evenodd" clip-rule="evenodd" d="M0.281494 4.21875C0.281494 4.06342 0.407414 3.9375 0.562744 3.9375H8.43774C8.59307 3.9375 8.71899 4.06342 8.71899 4.21875C8.71899 4.37408 8.59307 4.5 8.43774 4.5H0.562744C0.407414 4.5 0.281494 4.37408 0.281494 4.21875Z" fill="#FF9900"/>
<path fill-rule="evenodd" clip-rule="evenodd" d="M6.46899 6.1875C6.62432 6.1875 6.75024 6.31342 6.75024 6.46875L6.75024 7.3125L7.59399 7.3125V6.46875C7.59399 6.31342 7.71991 6.1875 7.87524 6.1875C8.03057 6.1875 8.15649 6.31342 8.15649 6.46875V7.3125C8.15649 7.46168 8.09723 7.60476 7.99174 7.71025C7.88625 7.81574 7.74318 7.875 7.59399 7.875H6.75024C6.60106 7.875 6.45799 7.81574 6.3525 7.71025C6.24701 7.60476 6.18774 7.46168 6.18774 7.3125V6.46875C6.18774 6.31342 6.31366 6.1875 6.46899 6.1875Z" fill="#FF9900"/>
<path fill-rule="evenodd" clip-rule="evenodd" d="M1.12524 6.1875C1.28057 6.1875 1.40649 6.31342 1.40649 6.46875V7.3125H2.25024V6.46875C2.25024 6.31342 2.37616 6.1875 2.53149 6.1875C2.68682 6.1875 2.81274 6.31342 2.81274 6.46875V7.3125C2.81274 7.46168 2.75348 7.60476 2.64799 7.71025C2.5425 7.81574 2.39943 7.875 2.25024 7.875H1.40649C1.25731 7.875 1.11424 7.81574 1.00875 7.71025C0.903257 7.60476 0.843994 7.46168 0.843994 7.3125V6.46875C0.843994 6.31342 0.969914 6.1875 1.12524 6.1875Z" fill="#FF9900"/>
<path fill-rule="evenodd" clip-rule="evenodd" d="M1.96899 5.34375C1.96899 5.18842 2.09491 5.0625 2.25024 5.0625H2.81274C2.96807 5.0625 3.09399 5.18842 3.09399 5.34375C3.09399 5.49908 2.96807 5.625 2.81274 5.625H2.25024C2.09491 5.625 1.96899 5.49908 1.96899 5.34375Z" fill="#FF9900"/>
<path fill-rule="evenodd" clip-rule="evenodd" d="M5.90649 5.34375C5.90649 5.18842 6.03241 5.0625 6.18774 5.0625H6.75024C6.90557 5.0625 7.03149 5.18842 7.03149 5.34375C7.03149 5.49908 6.90557 5.625 6.75024 5.625H6.18774C6.03241 5.625 5.90649 5.49908 5.90649 5.34375Z" fill="#FF9900"/>
<path fill-rule="evenodd" clip-rule="evenodd" d="M2.43306 1.40625H6.56856C6.67763 1.40669 6.78421 1.43883 6.87534 1.49875C6.96616 1.55846 7.03772 1.6432 7.08139 1.74272C7.08154 1.74306 7.08169 1.74341 7.08184 1.74375L8.13221 4.10442C8.14822 4.14041 8.15649 4.17936 8.15649 4.21875V6.46875C8.15649 6.62408 8.03057 6.75 7.87524 6.75H1.12524C0.969914 6.75 0.843994 6.62408 0.843994 6.46875V4.21875C0.843994 4.17936 0.852269 4.14041 0.868282 4.10442L1.91912 1.74267C1.96279 1.64318 2.03434 1.55845 2.12515 1.49875C2.21628 1.43883 2.32286 1.40669 2.43193 1.40625L2.43306 1.40625ZM2.43419 1.96875L2.43338 1.97059L1.40649 4.2785V6.1875H7.59399V4.2785L6.5663 1.96875L2.43419 1.96875Z" fill="#FF9900"/>
</svg>
