<svg width="6" height="8" viewBox="0 0 6 8" fill="none" xmlns="http://www.w3.org/2000/svg">
<path d="M6 8H0V7.2381C0 6.73292 0.197544 6.24844 0.549175 5.89123C0.900805 5.53401 1.37772 5.33333 1.875 5.33333H4.125C4.62228 5.33333 5.09919 5.53401 5.45083 5.89123C5.80246 6.24844 6 6.73292 6 7.2381V8ZM3 4.57143C2.70453 4.57143 2.41194 4.51231 2.13896 4.39744C1.86598 4.28257 1.61794 4.11421 1.40901 3.90196C1.20008 3.68971 1.03434 3.43773 0.921271 3.16042C0.808198 2.8831 0.75 2.58588 0.75 2.28571C0.75 1.98555 0.808198 1.68832 0.921271 1.41101C1.03434 1.13369 1.20008 0.881718 1.40901 0.66947C1.61794 0.457222 1.86598 0.288858 2.13896 0.17399C2.41194 0.0591217 2.70453 -4.4728e-09 3 0C3.59674 9.03322e-09 4.16903 0.240816 4.59099 0.66947C5.01295 1.09812 5.25 1.67951 5.25 2.28571C5.25 2.89192 5.01295 3.4733 4.59099 3.90196C4.16903 4.33061 3.59674 4.57143 3 4.57143Z" fill="#FF9900"/>
</svg>
