<svg width="7" height="9" viewBox="0 0 7 9" fill="none" xmlns="http://www.w3.org/2000/svg">
<path d="M4.75 6.75C4.54375 6.75 4.36713 6.67663 4.22012 6.52987C4.07337 6.38287 4 6.20625 4 6C4 5.79375 4.07337 5.61713 4.22012 5.47013C4.36713 5.32337 4.54375 5.25 4.75 5.25C4.95625 5.25 5.13287 5.32337 5.27987 5.47013C5.42663 5.61713 5.5 5.79375 5.5 6C5.5 6.20625 5.42663 6.38287 5.27987 6.52987C5.13287 6.67663 4.95625 6.75 4.75 6.75ZM3.25 8.25V8.03437C3.25 7.75937 3.3875 7.53912 3.6625 7.37362C3.9375 7.20788 4.3 7.125 4.75 7.125C5.2 7.125 5.5625 7.20788 5.8375 7.37362C6.1125 7.53912 6.25 7.75937 6.25 8.03437V8.25H3.25ZM4.375 4.5H3.625V2.625C3.625 2.30625 3.5125 2.039 3.2875 1.82325C3.0625 1.60775 2.8 1.5 2.5 1.5C2.2 1.5 1.9375 1.60775 1.7125 1.82325C1.4875 2.039 1.375 2.30625 1.375 2.625V6.375C1.375 6.675 1.4875 6.9375 1.7125 7.1625C1.9375 7.3875 2.2 7.5 2.5 7.5V8.25C1.96875 8.25 1.5235 8.07025 1.16425 7.71075C0.80475 7.3515 0.625 6.90625 0.625 6.375V2.625C0.625 2.09375 0.80475 1.6485 1.16425 1.28925C1.5235 0.92975 1.96875 0.75 2.5 0.75C3.03125 0.75 3.4765 0.92975 3.83575 1.28925C4.19525 1.6485 4.375 2.09375 4.375 2.625V4.5ZM2.5 3.75C2.70625 3.75 2.88287 3.6765 3.02988 3.5295C3.17663 3.38275 3.25 3.20625 3.25 3C3.25 2.79375 3.17663 2.61725 3.02988 2.4705C2.88287 2.3235 2.70625 2.25 2.5 2.25C2.29375 2.25 2.11725 2.3235 1.9705 2.4705C1.8235 2.61725 1.75 2.79375 1.75 3C1.75 3.20625 1.8235 3.38275 1.9705 3.5295C2.11725 3.6765 2.29375 3.75 2.5 3.75ZM1.75 6C1.75 6.20625 1.8235 6.38287 1.9705 6.52987C2.11725 6.67663 2.29375 6.75 2.5 6.75C2.70625 6.75 2.88287 6.67663 3.02988 6.52987C3.17663 6.38287 3.25 6.20625 3.25 6C3.25 5.79375 3.17663 5.61713 3.02988 5.47013C2.88287 5.32337 2.70625 5.25 2.5 5.25C2.29375 5.25 2.11725 5.32337 1.9705 5.47013C1.8235 5.61713 1.75 5.79375 1.75 6ZM2.5 6.375C2.3875 6.375 2.29687 6.336 2.22812 6.258C2.15937 6.17975 2.125 6.09375 2.125 6C2.125 5.90625 2.15937 5.82025 2.22812 5.742C2.29687 5.664 2.3875 5.625 2.5 5.625C2.6125 5.625 2.70313 5.65937 2.77188 5.72812C2.84063 5.79688 2.875 5.8875 2.875 6C2.875 6.09375 2.84063 6.17975 2.77188 6.258C2.70313 6.336 2.6125 6.375 2.5 6.375Z" fill="#FF9900"/>
</svg>
